<svg xmlns="http://www.w3.org/2000/svg">
    <symbol viewBox="0 0 16 16" fill="none" xmlns="http://www.w3.org/2000/svg" id="icon-arrow-left">
        <path d="M8 9V16L0 8L8 0V7H16V9H8Z" fill="#603809"/>
    </symbol>
    <symbol viewBox="0 0 16 16" fill="none" xmlns="http://www.w3.org/2000/svg" id="icon-arrow-right">
        <path d="M8 9V16L16 8L8 0V7H0V9H8Z" fill="#603809"/>
    </symbol>
    <symbol viewBox="0 0 24 24" fill="none" xmlns="http://www.w3.org/2000/svg" id="facebook">
        <path d="M12 2C6.477 2 2 6.477 2 12C2 16.991 5.657 21.128 10.438 21.879V14.89H7.898V12H10.438V9.797C10.438 7.291 11.93 5.907 14.215 5.907C15.309 5.907 16.453 6.102 16.453 6.102V8.562H15.193C13.95 8.562 13.563 9.333 13.563 10.124V12H16.336L15.893 14.89H13.563V21.879C18.343 21.129 22 16.99 22 12C22 6.477 17.523 2 12 2Z" fill="white"/>
    </symbol>
    <symbol viewBox="0 0 24 24" fill="none" xmlns="http://www.w3.org/2000/svg" id="instagram">
        <path d="M12 2C14.717 2 15.056 2.01 16.122 2.06C17.187 2.11 17.912 2.277 18.55 2.525C19.21 2.779 19.766 3.123 20.322 3.678C20.8305 4.1779 21.224 4.78259 21.475 5.45C21.722 6.087 21.89 6.813 21.94 7.878C21.987 8.944 22 9.283 22 12C22 14.717 21.99 15.056 21.94 16.122C21.89 17.187 21.722 17.912 21.475 18.55C21.2247 19.2178 20.8311 19.8226 20.322 20.322C19.822 20.8303 19.2173 21.2238 18.55 21.475C17.913 21.722 17.187 21.89 16.122 21.94C15.056 21.987 14.717 22 12 22C9.283 22 8.944 21.99 7.878 21.94C6.813 21.89 6.088 21.722 5.45 21.475C4.78233 21.2245 4.17753 20.8309 3.678 20.322C3.16941 19.8222 2.77593 19.2175 2.525 18.55C2.277 17.913 2.11 17.187 2.06 16.122C2.013 15.056 2 14.717 2 12C2 9.283 2.01 8.944 2.06 7.878C2.11 6.812 2.277 6.088 2.525 5.45C2.77524 4.78218 3.1688 4.17732 3.678 3.678C4.17767 3.16923 4.78243 2.77573 5.45 2.525C6.088 2.277 6.812 2.11 7.878 2.06C8.944 2.013 9.283 2 12 2ZM12 7C10.6739 7 9.40215 7.52678 8.46447 8.46447C7.52678 9.40215 7 10.6739 7 12C7 13.3261 7.52678 14.5979 8.46447 15.5355C9.40215 16.4732 10.6739 17 12 17C13.3261 17 14.5979 16.4732 15.5355 15.5355C16.4732 14.5979 17 13.3261 17 12C17 10.6739 16.4732 9.40215 15.5355 8.46447C14.5979 7.52678 13.3261 7 12 7ZM18.5 6.75C18.5 6.41848 18.3683 6.10054 18.1339 5.86612C17.8995 5.6317 17.5815 5.5 17.25 5.5C16.9185 5.5 16.6005 5.6317 16.3661 5.86612C16.1317 6.10054 16 6.41848 16 6.75C16 7.08152 16.1317 7.39946 16.3661 7.63388C16.6005 7.8683 16.9185 8 17.25 8C17.5815 8 17.8995 7.8683 18.1339 7.63388C18.3683 7.39946 18.5 7.08152 18.5 6.75ZM12 9C12.7956 9 13.5587 9.31607 14.1213 9.87868C14.6839 10.4413 15 11.2044 15 12C15 12.7956 14.6839 13.5587 14.1213 14.1213C13.5587 14.6839 12.7956 15 12 15C11.2044 15 10.4413 14.6839 9.87868 14.1213C9.31607 13.5587 9 12.7956 9 12C9 11.2044 9.31607 10.4413 9.87868 9.87868C10.4413 9.31607 11.2044 9 12 9Z" fill="white"/>
    </symbol>
    <symbol viewBox="0 0 22 18" fill="none" xmlns="http://www.w3.org/2000/svg" id="twitter">
        <path d="M21.162 2.65593C20.3986 2.99362 19.589 3.2154 18.76 3.31393C19.6338 2.79136 20.2877 1.96894 20.6 0.999927C19.78 1.48793 18.881 1.82993 17.944 2.01493C17.3146 1.34151 16.4804 0.89489 15.571 0.744511C14.6616 0.594133 13.7279 0.748418 12.9153 1.18338C12.1026 1.61834 11.4564 2.30961 11.0771 3.14972C10.6978 3.98983 10.6068 4.93171 10.818 5.82893C9.15512 5.74558 7.52834 5.31345 6.04329 4.56059C4.55825 3.80773 3.24813 2.75097 2.19801 1.45893C1.8263 2.09738 1.63096 2.82315 1.63201 3.56193C1.63201 5.01193 2.37001 6.29293 3.49201 7.04293C2.82802 7.02202 2.17864 6.84271 1.59801 6.51993V6.57193C1.59821 7.53763 1.93238 8.47354 2.54385 9.22099C3.15533 9.96843 4.00649 10.4814 4.95301 10.6729C4.33662 10.84 3.69031 10.8646 3.06301 10.7449C3.32987 11.5762 3.85001 12.3031 4.5506 12.824C5.25118 13.3449 6.09714 13.6337 6.97001 13.6499C6.10249 14.3313 5.10918 14.8349 4.04689 15.1321C2.98459 15.4293 1.87413 15.5142 0.779007 15.3819C2.6907 16.6114 4.9161 17.264 7.18901 17.2619C14.882 17.2619 19.089 10.8889 19.089 5.36193C19.089 5.18193 19.084 4.99993 19.076 4.82193C19.8949 4.23009 20.6016 3.49695 21.163 2.65693L21.162 2.65593Z" fill="white"/>
    </symbol>
    <symbol viewBox="0 0 24 24" fill="none" xmlns="http://www.w3.org/2000/svg" id="youtube">
        <path d="M21.543 6.498C22 8.28 22 12 22 12C22 12 22 15.72 21.543 17.502C21.289 18.487 20.546 19.262 19.605 19.524C17.896 20 12 20 12 20C12 20 6.107 20 4.395 19.524C3.45 19.258 2.708 18.484 2.457 17.502C2 15.72 2 12 2 12C2 12 2 8.28 2.457 6.498C2.711 5.513 3.454 4.738 4.395 4.476C6.107 4 12 4 12 4C12 4 17.896 4 19.605 4.476C20.55 4.742 21.292 5.516 21.543 6.498ZM10 15.5L16 12L10 8.5V15.5Z" fill="white"/>
    </symbol>

</svg>